<?xml version="1.0" encoding="UTF-8" standalone="no"?>
<!DOCTYPE svg PUBLIC "-//W3C//DTD SVG 1.1//EN" "http://www.w3.org/Graphics/SVG/1.1/DTD/svg11.dtd">
<svg version="1.1" xmlns="http://www.w3.org/2000/svg" xmlns:xlink="http://www.w3.org/1999/xlink" preserveAspectRatio="xMidYMid meet" viewBox="0 0 500 350" width="500" height="350"><defs><path d="M466.52 35.6L463.04 49.83L422.22 62.46L411.47 44.76L441.54 14.4L455.77 17.88L466.52 35.6Z" id="bvWuB5Lkn"></path><path d="M418.75 43.37L419.15 43.42L419.54 43.49L419.93 43.57L420.32 43.67L420.7 43.78L421.07 43.91L421.45 44.05L421.82 44.2L422.18 44.37L422.53 44.55L422.88 44.75L423.22 44.96L423.56 45.18L423.88 45.42L424.2 45.68L424.51 45.94L424.81 46.22L425.1 46.51L425.38 46.82L425.65 47.14L425.91 47.47L426.15 47.81L426.39 48.17L426.61 48.54L426.81 48.91L427 49.29L427.17 49.67L427.32 50.06L427.46 50.44L427.58 50.84L427.68 51.23L427.77 51.63L427.84 52.03L427.9 52.43L427.94 52.83L427.96 53.23L427.97 53.63L427.96 54.02L427.94 54.42L427.91 54.82L427.85 55.21L427.79 55.61L427.71 56L427.61 56.38L427.5 56.76L427.37 57.14L427.23 57.51L427.08 57.88L426.91 58.24L426.72 58.6L426.53 58.95L426.32 59.29L426.09 59.62L425.85 59.95L425.6 60.27L425.33 60.58L425.05 60.87L424.76 61.16L424.46 61.44L424.14 61.71L423.8 61.97L423.46 62.22L423.1 62.45L420.26 64.23L417.19 66.15L413.9 68.2L410.41 70.39L406.73 72.69L402.87 75.11L398.84 77.63L394.65 80.24L390.32 82.95L385.86 85.74L381.28 88.61L376.6 91.54L371.81 94.53L366.94 97.58L362 100.67L357 103.79L351.96 106.95L346.87 110.13L341.77 113.33L336.65 116.53L331.53 119.73L326.42 122.93L321.34 126.11L316.29 129.26L311.29 132.39L306.35 135.48L301.48 138.52L296.7 141.52L292.01 144.45L287.43 147.31L282.97 150.1L278.64 152.81L274.46 155.43L270.43 157.95L266.57 160.36L262.88 162.67L259.39 164.85L256.11 166.9L254.84 167.69L255.58 169.47L256.47 171.9L257.28 174.36L257.98 176.84L258.6 179.36L259.11 181.89L259.54 184.44L259.86 187.01L260.08 189.6L260.21 192.19L260.23 194.79L260.16 197.4L259.98 200L259.7 202.61L259.31 205.21L258.83 207.8L258.24 210.38L257.54 212.95L256.74 215.51L255.82 218.04L254.81 220.55L253.68 223.04L252.44 225.49L251.1 227.92L249.65 230.29L248.13 232.58L246.52 234.79L244.84 236.92L243.09 238.96L241.27 240.92L239.38 242.8L237.43 244.59L235.41 246.3L233.34 247.92L231.21 249.45L229.03 250.89L226.81 252.25L224.53 253.51L222.22 254.68L219.86 255.77L217.47 256.76L215.04 257.65L212.58 258.46L210.09 259.17L208.54 259.54L208.48 259.95L207.78 263.69L206.93 267.41L205.92 271.12L204.77 274.8L203.45 278.45L201.98 282.07L200.36 285.65L198.58 289.2L196.64 292.7L194.55 296.11L192.36 299.41L190.04 302.6L187.62 305.66L185.09 308.61L182.47 311.43L179.74 314.14L176.93 316.72L174.03 319.18L171.04 321.51L167.97 323.72L164.83 325.8L161.62 327.75L158.34 329.57L155 331.27L151.61 332.83L148.16 334.25L144.66 335.55L141.11 336.71L137.53 337.73L133.9 338.61L130.25 339.36L126.57 339.96L122.86 340.43L119.14 340.75L115.4 340.94L111.65 340.97L107.9 340.86L104.14 340.61L100.38 340.21L96.63 339.65L92.89 338.95L89.17 338.1L85.47 337.1L81.79 335.94L78.14 334.63L74.52 333.16L70.93 331.54L67.39 329.75L63.89 327.81L60.47 325.73L57.17 323.53L53.99 321.22L50.92 318.8L47.98 316.28L45.15 313.65L42.45 310.93L39.87 308.11L37.41 305.21L35.07 302.22L32.87 299.16L30.79 296.02L28.84 292.81L27.01 289.53L25.32 286.19L23.76 282.8L22.34 279.35L21.04 275.85L19.89 272.3L18.86 268.72L17.98 265.09L17.24 261.44L16.63 257.76L16.16 254.06L15.84 250.33L15.66 246.59L15.63 242.84L15.73 239.09L15.99 235.33L16.39 231.57L16.95 227.82L17.65 224.09L18.5 220.36L19.51 216.66L20.66 212.98L21.98 209.33L23.44 205.71L25.07 202.12L26.85 198.58L28.79 195.08L30.87 191.66L33.07 188.36L35.39 185.18L37.81 182.11L40.33 179.17L42.96 176.34L45.68 173.64L48.5 171.05L51.4 168.6L54.39 166.26L57.46 164.06L60.6 161.98L63.81 160.02L67.09 158.2L70.42 156.51L73.82 154.95L77.27 153.52L80.77 152.23L84.32 151.07L87.9 150.05L91.52 149.16L95.18 148.42L98.86 147.81L102.56 147.35L106.29 147.02L110.03 146.84L113.78 146.8L117.53 146.91L121.29 147.17L125.05 147.57L128.8 148.12L132.53 148.82L136.26 149.67L139.96 150.68L141.07 151.03L142.67 149.17L144.49 147.21L146.38 145.33L148.33 143.54L150.34 141.84L152.42 140.22L154.54 138.69L156.72 137.25L158.95 135.89L161.22 134.63L163.54 133.45L165.9 132.37L168.29 131.38L170.72 130.48L173.18 129.68L175.67 128.97L178.18 128.36L180.71 127.84L183.27 127.42L185.84 127.1L188.42 126.87L191.02 126.75L193.62 126.72L196.22 126.79L198.83 126.97L201.43 127.25L204.04 127.63L206.63 128.12L209.21 128.71L211.78 129.4L214.33 130.21L216.87 131.12L219.38 132.13L221.87 133.26L224.32 134.5L226.75 135.84L229.12 137.28L231.41 138.81L233.62 140.41L235.75 142.09L237.79 143.85L239.75 145.67L241.63 147.56L243.42 149.51L243.92 150.1L245.12 149.35L248.41 147.29L251.9 145.11L255.58 142.8L259.44 140.39L263.47 137.87L267.65 135.25L271.98 132.54L276.44 129.75L281.02 126.89L285.71 123.95L290.49 120.96L295.36 117.92L300.3 114.83L305.3 111.7L310.35 108.54L315.43 105.36L320.54 102.17L325.65 98.96L330.77 95.76L335.88 92.57L340.96 89.39L346.01 86.23L351.01 83.1L355.95 80.01L360.82 76.97L365.6 73.98L370.29 71.04L374.87 68.18L379.33 65.39L383.66 62.68L387.84 60.06L391.87 57.54L395.73 55.13L399.42 52.82L402.91 50.64L406.19 48.59L409.26 46.67L412.11 44.89L412.47 44.67L412.85 44.47L413.22 44.28L413.6 44.11L413.99 43.96L414.38 43.82L414.77 43.7L415.16 43.6L415.56 43.51L415.96 43.44L416.36 43.38L416.76 43.34L417.16 43.32L417.56 43.31L417.96 43.31L418.36 43.34L418.36 43.34L418.75 43.37ZM148.4 186.2L147.01 186.39L145.64 186.65L144.29 186.95L142.96 187.31L141.65 187.71L140.37 188.17L139.1 188.68L137.87 189.23L136.65 189.83L135.47 190.47L134.31 191.16L133.19 191.89L132.09 192.66L131.02 193.48L129.99 194.33L128.99 195.22L128.03 196.15L127.1 197.11L126.21 198.11L125.36 199.14L124.55 200.21L123.77 201.3L123.04 202.43L122.36 203.59L121.71 204.77L121.11 205.98L120.56 207.22L120.05 208.48L119.6 209.77L119.19 211.08L118.83 212.41L118.53 213.76L118.28 215.13L118.08 216.52L117.94 217.92L117.85 219.34L117.82 220.78L117.85 222.21L117.94 223.63L118.08 225.04L118.28 226.43L118.53 227.8L118.83 229.15L119.19 230.48L119.6 231.78L120.05 233.07L120.56 234.33L121.11 235.57L121.71 236.78L122.36 237.97L123.04 239.12L123.77 240.25L124.55 241.35L125.36 242.41L126.21 243.45L127.1 244.44L128.03 245.41L128.99 246.34L129.99 247.23L131.02 248.08L132.09 248.89L133.19 249.66L134.31 250.39L135.47 251.08L136.65 251.73L137.87 252.32L139.1 252.88L140.37 253.38L141.65 253.84L142.96 254.25L144.29 254.6L145.64 254.91L147.01 255.16L148.4 255.36L149.8 255.5L151.23 255.59L152.66 255.62L154.1 255.59L155.52 255.5L156.92 255.36L158.31 255.16L159.68 254.91L161.03 254.6L162.36 254.25L163.67 253.84L164.95 253.38L166.22 252.88L167.45 252.32L168.67 251.73L169.85 251.08L171.01 250.39L172.13 249.66L173.23 248.89L174.3 248.08L175.33 247.23L176.33 246.34L177.29 245.41L178.22 244.44L179.11 243.45L179.96 242.41L180.77 241.35L181.55 240.25L182.28 239.12L182.96 237.97L183.61 236.78L184.21 235.57L184.76 234.33L185.27 233.07L185.72 231.78L186.13 230.48L186.49 229.15L186.79 227.8L187.04 226.43L187.24 225.04L187.38 223.63L187.47 222.21L187.5 220.78L187.47 219.34L187.38 217.92L187.24 216.52L187.04 215.13L186.79 213.76L186.49 212.41L186.13 211.08L185.72 209.77L185.27 208.48L184.76 207.22L184.21 205.98L183.61 204.77L182.96 203.59L182.28 202.43L181.55 201.3L180.77 200.21L179.96 199.14L179.11 198.11L178.22 197.11L177.29 196.15L176.33 195.22L175.33 194.33L174.3 193.48L173.23 192.66L172.13 191.89L171.01 191.16L169.85 190.47L168.67 189.83L167.45 189.23L166.22 188.68L164.95 188.17L163.67 187.71L162.36 187.31L161.03 186.95L159.68 186.65L158.31 186.39L156.92 186.2L155.52 186.05L154.1 185.97L152.66 185.94L151.23 185.97L149.8 186.05L149.8 186.05L148.4 186.2Z" id="d3ieocuw16"></path></defs><g><g><g><g><filter id="shadow2277092" x="402.47" y="5.4" width="74.05" height="67.06" filterUnits="userSpaceOnUse" primitiveUnits="userSpaceOnUse"><feFlood></feFlood><feComposite in2="SourceAlpha" operator="in"></feComposite><feGaussianBlur stdDeviation="1"></feGaussianBlur><feOffset dx="1" dy="1" result="afterOffset"></feOffset><feFlood flood-color="#000000" flood-opacity="0.5"></feFlood><feComposite in2="afterOffset" operator="in"></feComposite><feMorphology operator="dilate" radius="1"></feMorphology><feComposite in2="SourceAlpha" operator="out"></feComposite></filter><path d="M466.52 35.6L463.04 49.83L422.22 62.46L411.47 44.76L441.54 14.4L455.77 17.88L466.52 35.6Z" id="bxnLBp3CM" fill="white" fill-opacity="1" filter="url(#shadow2277092)"></path></g><use xlink:href="#bvWuB5Lkn" opacity="1" fill="#000000" fill-opacity="1"></use><g><use xlink:href="#bvWuB5Lkn" opacity="1" fill-opacity="0" stroke="#000000" stroke-width="1" stroke-opacity="0"></use></g></g><g><g><filter id="shadow16122140" x="6.63" y="34.31" width="431.35" height="316.66" filterUnits="userSpaceOnUse" primitiveUnits="userSpaceOnUse"><feFlood></feFlood><feComposite in2="SourceAlpha" operator="in"></feComposite><feGaussianBlur stdDeviation="1"></feGaussianBlur><feOffset dx="1" dy="1" result="afterOffset"></feOffset><feFlood flood-color="#000000" flood-opacity="0.5"></feFlood><feComposite in2="afterOffset" operator="in"></feComposite><feMorphology operator="dilate" radius="1"></feMorphology><feComposite in2="SourceAlpha" operator="out"></feComposite></filter><path d="M418.75 43.37L419.15 43.42L419.54 43.49L419.93 43.57L420.32 43.67L420.7 43.78L421.07 43.91L421.45 44.05L421.82 44.2L422.18 44.37L422.53 44.55L422.88 44.75L423.22 44.96L423.56 45.18L423.88 45.42L424.2 45.68L424.51 45.94L424.81 46.22L425.1 46.51L425.38 46.82L425.65 47.14L425.91 47.47L426.15 47.81L426.39 48.17L426.61 48.54L426.81 48.91L427 49.29L427.17 49.67L427.32 50.06L427.46 50.44L427.58 50.84L427.68 51.23L427.77 51.63L427.84 52.03L427.9 52.43L427.94 52.83L427.96 53.23L427.97 53.63L427.96 54.02L427.94 54.42L427.91 54.82L427.85 55.21L427.79 55.61L427.71 56L427.61 56.38L427.5 56.76L427.37 57.14L427.23 57.51L427.08 57.88L426.91 58.24L426.72 58.6L426.53 58.95L426.32 59.29L426.09 59.62L425.85 59.95L425.6 60.27L425.33 60.58L425.05 60.87L424.76 61.16L424.46 61.44L424.14 61.71L423.8 61.97L423.46 62.22L423.1 62.45L420.26 64.23L417.19 66.15L413.9 68.2L410.41 70.39L406.73 72.69L402.87 75.11L398.84 77.63L394.65 80.24L390.32 82.95L385.86 85.74L381.28 88.61L376.6 91.54L371.81 94.53L366.94 97.58L362 100.67L357 103.79L351.96 106.95L346.87 110.13L341.77 113.33L336.65 116.53L331.53 119.73L326.42 122.93L321.34 126.11L316.29 129.26L311.29 132.39L306.35 135.48L301.48 138.52L296.7 141.52L292.01 144.45L287.43 147.31L282.97 150.1L278.64 152.81L274.46 155.43L270.43 157.95L266.57 160.36L262.88 162.67L259.39 164.85L256.11 166.9L254.84 167.69L255.58 169.47L256.47 171.9L257.28 174.36L257.98 176.84L258.6 179.36L259.11 181.89L259.54 184.44L259.86 187.01L260.08 189.6L260.21 192.19L260.23 194.79L260.16 197.4L259.98 200L259.7 202.61L259.31 205.21L258.83 207.8L258.24 210.38L257.54 212.95L256.74 215.51L255.82 218.04L254.81 220.55L253.68 223.04L252.44 225.49L251.1 227.92L249.65 230.29L248.13 232.58L246.52 234.79L244.84 236.92L243.09 238.96L241.27 240.92L239.38 242.8L237.43 244.59L235.41 246.3L233.34 247.92L231.21 249.45L229.03 250.89L226.81 252.25L224.53 253.51L222.22 254.68L219.86 255.77L217.47 256.76L215.04 257.65L212.58 258.46L210.09 259.17L208.54 259.54L208.48 259.95L207.78 263.69L206.93 267.41L205.92 271.12L204.77 274.8L203.45 278.45L201.98 282.07L200.36 285.65L198.58 289.2L196.64 292.7L194.55 296.11L192.36 299.41L190.04 302.6L187.62 305.66L185.09 308.61L182.47 311.43L179.74 314.14L176.93 316.72L174.03 319.18L171.04 321.51L167.97 323.72L164.83 325.8L161.62 327.75L158.34 329.57L155 331.27L151.61 332.83L148.16 334.25L144.66 335.55L141.11 336.71L137.53 337.73L133.9 338.61L130.25 339.36L126.57 339.96L122.86 340.43L119.14 340.75L115.4 340.94L111.65 340.97L107.9 340.86L104.14 340.61L100.38 340.21L96.63 339.65L92.89 338.95L89.17 338.1L85.47 337.1L81.79 335.94L78.14 334.63L74.52 333.16L70.93 331.54L67.39 329.75L63.89 327.81L60.47 325.73L57.17 323.53L53.99 321.22L50.92 318.8L47.98 316.28L45.15 313.65L42.45 310.93L39.87 308.11L37.41 305.21L35.07 302.22L32.87 299.16L30.79 296.02L28.84 292.81L27.01 289.53L25.32 286.19L23.76 282.8L22.34 279.35L21.04 275.85L19.89 272.3L18.86 268.72L17.98 265.09L17.24 261.44L16.63 257.76L16.16 254.06L15.84 250.33L15.66 246.59L15.63 242.84L15.73 239.09L15.99 235.33L16.39 231.57L16.95 227.82L17.65 224.09L18.5 220.36L19.51 216.66L20.66 212.98L21.98 209.33L23.44 205.71L25.07 202.12L26.85 198.58L28.79 195.08L30.87 191.66L33.07 188.36L35.39 185.18L37.81 182.11L40.33 179.17L42.96 176.34L45.68 173.64L48.5 171.05L51.4 168.6L54.39 166.26L57.46 164.06L60.6 161.98L63.81 160.02L67.09 158.2L70.42 156.51L73.82 154.95L77.27 153.52L80.77 152.23L84.32 151.07L87.9 150.05L91.52 149.16L95.18 148.42L98.86 147.81L102.56 147.35L106.29 147.02L110.03 146.84L113.78 146.8L117.53 146.91L121.29 147.17L125.05 147.57L128.8 148.12L132.53 148.82L136.26 149.67L139.96 150.68L141.07 151.03L142.67 149.17L144.49 147.21L146.38 145.33L148.33 143.54L150.34 141.84L152.42 140.22L154.54 138.69L156.72 137.25L158.95 135.89L161.22 134.63L163.54 133.45L165.9 132.37L168.29 131.38L170.72 130.48L173.18 129.68L175.67 128.97L178.18 128.36L180.71 127.84L183.27 127.42L185.84 127.1L188.42 126.87L191.02 126.75L193.62 126.72L196.22 126.79L198.83 126.97L201.43 127.25L204.04 127.63L206.63 128.12L209.21 128.71L211.78 129.4L214.33 130.21L216.87 131.12L219.38 132.13L221.87 133.26L224.32 134.5L226.75 135.84L229.12 137.28L231.41 138.81L233.62 140.41L235.75 142.09L237.79 143.85L239.75 145.67L241.63 147.56L243.42 149.51L243.92 150.1L245.12 149.35L248.41 147.29L251.9 145.11L255.58 142.8L259.44 140.39L263.47 137.87L267.65 135.25L271.98 132.54L276.44 129.75L281.02 126.89L285.71 123.95L290.49 120.96L295.36 117.92L300.3 114.83L305.3 111.7L310.35 108.54L315.43 105.36L320.54 102.17L325.65 98.96L330.77 95.76L335.88 92.57L340.96 89.39L346.01 86.23L351.01 83.1L355.95 80.01L360.82 76.97L365.6 73.98L370.29 71.04L374.87 68.18L379.33 65.39L383.66 62.68L387.84 60.06L391.87 57.54L395.73 55.13L399.42 52.82L402.91 50.64L406.19 48.59L409.26 46.67L412.11 44.89L412.47 44.67L412.85 44.47L413.22 44.28L413.6 44.11L413.99 43.96L414.38 43.82L414.77 43.7L415.16 43.6L415.56 43.51L415.96 43.44L416.36 43.38L416.76 43.34L417.16 43.32L417.56 43.31L417.96 43.31L418.36 43.34L418.36 43.34L418.75 43.37ZM148.4 186.2L147.01 186.39L145.64 186.65L144.29 186.95L142.96 187.31L141.65 187.71L140.37 188.17L139.1 188.68L137.87 189.23L136.65 189.83L135.47 190.47L134.31 191.16L133.19 191.89L132.09 192.66L131.02 193.48L129.99 194.33L128.99 195.22L128.03 196.15L127.1 197.11L126.21 198.11L125.36 199.14L124.55 200.21L123.77 201.3L123.04 202.43L122.36 203.59L121.71 204.77L121.11 205.98L120.56 207.22L120.05 208.48L119.6 209.77L119.19 211.08L118.83 212.41L118.53 213.76L118.28 215.13L118.08 216.52L117.94 217.92L117.85 219.34L117.82 220.78L117.85 222.21L117.94 223.63L118.08 225.04L118.28 226.43L118.53 227.8L118.83 229.15L119.19 230.48L119.6 231.78L120.05 233.07L120.56 234.33L121.11 235.57L121.71 236.78L122.36 237.97L123.04 239.12L123.77 240.25L124.55 241.35L125.36 242.41L126.21 243.45L127.1 244.44L128.03 245.41L128.99 246.34L129.99 247.23L131.02 248.08L132.09 248.89L133.19 249.66L134.31 250.39L135.47 251.08L136.65 251.73L137.87 252.32L139.1 252.88L140.37 253.38L141.65 253.84L142.96 254.25L144.29 254.6L145.64 254.91L147.01 255.16L148.4 255.36L149.8 255.5L151.23 255.59L152.66 255.62L154.1 255.59L155.52 255.5L156.92 255.36L158.31 255.16L159.68 254.91L161.03 254.6L162.36 254.25L163.67 253.84L164.95 253.38L166.22 252.88L167.45 252.32L168.67 251.73L169.85 251.08L171.01 250.39L172.13 249.66L173.23 248.89L174.3 248.08L175.33 247.23L176.33 246.34L177.29 245.41L178.22 244.44L179.11 243.45L179.96 242.41L180.77 241.35L181.55 240.25L182.28 239.12L182.96 237.97L183.61 236.78L184.21 235.57L184.76 234.33L185.27 233.07L185.72 231.78L186.13 230.48L186.49 229.15L186.79 227.8L187.04 226.43L187.24 225.04L187.38 223.63L187.47 222.21L187.5 220.78L187.47 219.34L187.38 217.92L187.24 216.52L187.04 215.13L186.79 213.76L186.49 212.41L186.13 211.08L185.72 209.77L185.27 208.48L184.76 207.22L184.21 205.98L183.61 204.77L182.96 203.59L182.28 202.43L181.55 201.3L180.77 200.21L179.96 199.14L179.11 198.11L178.22 197.11L177.29 196.15L176.33 195.22L175.33 194.33L174.3 193.48L173.23 192.66L172.13 191.89L171.01 191.16L169.85 190.47L168.67 189.83L167.45 189.23L166.22 188.68L164.95 188.17L163.67 187.71L162.36 187.31L161.03 186.95L159.68 186.65L158.31 186.39L156.92 186.2L155.52 186.05L154.1 185.97L152.66 185.94L151.23 185.97L149.8 186.05L149.8 186.05L148.4 186.2Z" id="b18wNtimXn" fill="white" fill-opacity="1" filter="url(#shadow16122140)"></path></g><use xlink:href="#d3ieocuw16" opacity="1" fill="#de9e59" fill-opacity="1"></use><g><use xlink:href="#d3ieocuw16" opacity="1" fill-opacity="0" stroke="#000000" stroke-width="1" stroke-opacity="0"></use></g></g></g></g></svg>